name analog
datacolumns 19
datarows 63
range 0.0 0.031
endheader
time	ground_force_vx	ground_force_vy	ground_force_vz	ground_force_px	ground_force_py	ground_force_pz	l_ground_force_vx	l_ground_force_vy	l_ground_force_vz	l_ground_force_px	l_ground_force_py	l_ground_force_pz	ground_torque_x	ground_torque_y	ground_torque_z	l_ground_torque_x	l_ground_torque_y	l_ground_torque_z
0.0	-0.0	-0.0	-0.0	-0.0	-0.0	-0.0	1.5967941284179688	4.52640438079834	-873.16259765625	-0.0	-0.0	-0.0	-0.0	-0.0	-0.0	247192.390625	-5485.3017578125	-585.4265747070312
0.0005	-0.0	-0.0	-0.0	-0.0	-0.0	-0.0	1.369535207748413	3.1465015411376958	-871.83154296875	-0.0	-0.0	-0.0	-0.0	-0.0	-0.0	246483.5625	-5530.94140625	-519.1806030273438
0.001	-0.0	-0.0	-0.0	-0.0	-0.0	-0.0	0.7923735976219177	2.8487558364868164	-870.5000610351562	-0.0	-0.0	-0.0	-0.0	-0.0	-0.0	246602.59375	-5345.25048828125	-710.6498413085938
0.0015	-0.0	-0.0	-0.0	-0.0	-0.0	-0.0	0.2826114296913147	2.054093360900879	-871.0036010742188	-0.0	-0.0	-0.0	-0.0	-0.0	-0.0	246089.671875	-5332.72412109375	-754.010986328125
0.002	-0.0	-0.0	-0.0	-0.0	-0.0	-0.0	0.1609841734170913	1.756563663482666	-871.04296875	-0.0	-0.0	-0.0	-0.0	-0.0	-0.0	245595.09375	-5496.5673828125	-724.55078125
0.0025	-0.0	-0.0	-0.0	-0.0	-0.0	-0.0	0.2170451134443283	1.1807632446289062	-871.5468139648438	-0.0	-0.0	-0.0	-0.0	-0.0	-0.0	245448.6875	-5568.59423828125	-638.9048461914062
0.003	-0.0	-0.0	-0.0	-0.0	-0.0	-0.0	0.1050312221050262	0.834470272064209	-871.546630859375	-0.0	-0.0	-0.0	-0.0	-0.0	-0.0	245509.484375	-5637.51171875	-668.6944580078125
0.0035	-0.0	-0.0	-0.0	-0.0	-0.0	-0.0	0.0562137737870216	0.4975756406784057	-873.513427734375	-0.0	-0.0	-0.0	-0.0	-0.0	-0.0	246033.421875	-5835.5859375	-598.5477294921875
0.004	-0.0	-0.0	-0.0	-0.0	-0.0	-0.0	0.4435539245605469	0.4338672161102295	-876.306884765625	-0.0	-0.0	-0.0	-0.0	-0.0	-0.0	246141.125	-6130.60693359375	-671.0216674804688
0.0045000000000000005	-0.0	-0.0	-0.0	-0.0	-0.0	-0.0	0.6371212005615234	0.8590145111083984	-878.33837890625	-0.0	-0.0	-0.0	-0.0	-0.0	-0.0	246515.09375	-6172.37939453125	-552.1475219726562
0.005	-0.0	-0.0	-0.0	-0.0	-0.0	-0.0	0.8871078491210938	0.8672166466712952	-877.7974853515625	-0.0	-0.0	-0.0	-0.0	-0.0	-0.0	246844.234375	-6211.66015625	-411.8660888671875
0.0055	-0.0	-0.0	-0.0	-0.0	-0.0	-0.0	1.0965540409088137	0.7384576797485352	-878.5284423828125	-0.0	-0.0	-0.0	-0.0	-0.0	-0.0	247049.8125	-6517.541015625	-355.00103759765625
0.006	-0.0	-0.0	-0.0	-0.0	-0.0	-0.0	1.3962894678115845	1.1004804372787476	-879.8272094726562	-0.0	-0.0	-0.0	-0.0	-0.0	-0.0	247120.484375	-6478.7109375	-584.2894897460938
0.006500000000000001	-0.0	-0.0	-0.0	-0.0	-0.0	-0.0	0.855316698551178	1.2773476839065552	-881.1961059570312	-0.0	-0.0	-0.0	-0.0	-0.0	-0.0	247087.78125	-6360.5146484375	-449.3431701660156
0.007	-0.0	-0.0	-0.0	-0.0	-0.0	-0.0	0.7983970642089844	1.1008288860321045	-880.8099975585938	-0.0	-0.0	-0.0	-0.0	-0.0	-0.0	246875.546875	-6527.880859375	-484.3799743652344
0.0075	-0.0	-0.0	-0.0	-0.0	-0.0	-0.0	0.7570318579673767	1.1324692964553833	-880.2733154296875	-0.0	-0.0	-0.0	-0.0	-0.0	-0.0	246423.03125	-6424.35595703125	-357.1422119140625
0.008	-0.0	-0.0	-0.0	-0.0	-0.0	-0.0	0.8871078491210938	0.9402353763580322	-882.3856811523438	-0.0	-0.0	-0.0	-0.0	-0.0	-0.0	245942.09375	-6437.24462890625	-487.6485595703125
0.0085	-0.0	-0.0	-0.0	-0.0	-0.0	-0.0	1.001813888549805	0.6338618993759155	-877.6030883789062	-0.0	-0.0	-0.0	-0.0	-0.0	-0.0	245691.4375	-6568.96875	-414.4230651855469
0.009000000000000001	-0.0	-0.0	-0.0	-0.0	-0.0	-0.0	0.8345175981521606	0.2077143192291259	-878.3005981445312	-0.0	-0.0	-0.0	-0.0	-0.0	-0.0	245369.921875	-6444.25830078125	-432.2359924316406
0.0095	-0.0	-0.0	-0.0	-0.0	-0.0	-0.0	1.550108551979065	-0.0728280842304229	-876.8422241210938	-0.0	-0.0	-0.0	-0.0	-0.0	-0.0	245163.265625	-6945.74267578125	-211.76808166503903
0.01	-0.0	-0.0	-0.0	-0.0	-0.0	-0.0	1.670001745223999	-0.1191919818520546	-877.2959594726562	-0.0	-0.0	-0.0	-0.0	-0.0	-0.0	245275.34375	-7216.71337890625	-77.46648406982422
0.0105	-0.0	-0.0	-0.0	-0.0	-0.0	-0.0	1.9516372680664065	-0.3148878812789917	-877.4635620117188	-0.0	-0.0	-0.0	-0.0	-0.0	-0.0	244850.390625	-7251.83056640625	90.30014038085938
0.011	-0.0	-0.0	-0.0	-0.0	-0.0	-0.0	2.3644187450408936	-0.5876142382621765	-876.0819091796875	-0.0	-0.0	-0.0	-0.0	-0.0	-0.0	244907.5625	-7434.0869140625	213.1195373535156
0.0115	-0.0	-0.0	-0.0	-0.0	-0.0	-0.0	2.3830511569976807	-0.6913264989852905	-876.6594848632812	-0.0	-0.0	-0.0	-0.0	-0.0	-0.0	244913.765625	-8060.44384765625	135.53811645507812
0.012	-0.0	-0.0	-0.0	-0.0	-0.0	-0.0	2.9856607913970947	-0.6486238837242126	-877.0088500976562	-0.0	-0.0	-0.0	-0.0	-0.0	-0.0	244823.0	-8047.1181640625	298.5990295410156
0.0125	-0.0	-0.0	-0.0	-0.0	-0.0	-0.0	3.16316556930542	-0.0883216857910156	-876.2508544921875	-0.0	-0.0	-0.0	-0.0	-0.0	-0.0	244836.84375	-8462.9736328125	243.77099609375
0.013000000000000001	-0.0	-0.0	-0.0	-0.0	-0.0	-0.0	3.373116970062256	-0.1465034931898117	-875.3231201171875	-0.0	-0.0	-0.0	-0.0	-0.0	-0.0	244696.03125	-8724.1875	333.7276306152344
0.0135	-0.0	-0.0	-0.0	-0.0	-0.0	-0.0	3.991985321044922	0.5317811965942383	-875.6722412109375	-0.0	-0.0	-0.0	-0.0	-0.0	-0.0	244625.078125	-8777.74609375	423.318359375
0.014	-0.0	-0.0	-0.0	-0.0	-0.0	-0.0	4.184443473815918	0.4999890923500061	-875.263916015625	-0.0	-0.0	-0.0	-0.0	-0.0	-0.0	244725.15625	-9048.09375	389.2397155761719
0.0145	-0.0	-0.0	-0.0	-0.0	-0.0	-0.0	3.933197498321533	0.5746176838874817	-874.0442504882812	-0.0	-0.0	-0.0	-0.0	-0.0	-0.0	244346.65625	-9130.181640625	437.89788818359375
0.015	-0.0	-0.0	-0.0	-0.0	-0.0	-0.0	4.287957668304443	0.471317708492279	-872.937744140625	-0.0	-0.0	-0.0	-0.0	-0.0	-0.0	244054.921875	-9197.7568359375	576.7643432617188
0.0155	-0.0	-0.0	-0.0	-0.0	-0.0	-0.0	4.612584114074707	0.6770079731941223	-873.6942749023438	-0.0	-0.0	-0.0	-0.0	-0.0	-0.0	243945.265625	-9189.3515625	334.84771728515625
0.016	-0.0	-0.0	-0.0	-0.0	-0.0	-0.0	4.065909385681152	0.3680085837841034	-872.7626953125	-0.0	-0.0	-0.0	-0.0	-0.0	-0.0	244181.65625	-9219.77734375	447.9425659179688
0.0165	-0.0	-0.0	-0.0	-0.0	-0.0	-0.0	3.7258529663085938	0.7802145481109619	-872.762939453125	-0.0	-0.0	-0.0	-0.0	-0.0	-0.0	243773.78125	-9151.216796875	344.0244140625
0.017	-0.0	-0.0	-0.0	-0.0	-0.0	-0.0	3.3116397857666016	0.7204936146736145	-872.705810546875	-0.0	-0.0	-0.0	-0.0	-0.0	-0.0	243777.09375	-8960.94140625	239.8505706787109
0.0175	-0.0	-0.0	-0.0	-0.0	-0.0	-0.0	3.4889769554138184	1.2219395637512207	-873.4622192382812	-0.0	-0.0	-0.0	-0.0	-0.0	-0.0	243847.921875	-9134.4345703125	170.99288940429688
0.018000000000000002	-0.0	-0.0	-0.0	-0.0	-0.0	-0.0	3.696713924407959	1.8112386465072632	-874.1035766601562	-0.0	-0.0	-0.0	-0.0	-0.0	-0.0	244157.328125	-9065.19140625	151.40936279296875
0.0185	-0.0	-0.0	-0.0	-0.0	-0.0	-0.0	3.830801963806152	1.8564913272857664	-874.3965454101562	-0.0	-0.0	-0.0	-0.0	-0.0	-0.0	244497.03125	-9027.99609375	77.06459045410156
0.019	-0.0	-0.0	-0.0	-0.0	-0.0	-0.0	3.5339787006378174	1.840366005897522	-874.9739990234375	-0.0	-0.0	-0.0	-0.0	-0.0	-0.0	244916.015625	-9180.759765625	126.4698486328125
0.0195	-0.0	-0.0	-0.0	-0.0	-0.0	-0.0	3.517242431640625	1.7664337158203125	-875.143798828125	-0.0	-0.0	-0.0	-0.0	-0.0	-0.0	244973.734375	-9191.072265625	52.660831451416016
0.02	-0.0	-0.0	-0.0	-0.0	-0.0	-0.0	3.516998052597046	1.5414562225341797	-875.3121337890625	-0.0	-0.0	-0.0	-0.0	-0.0	-0.0	245109.515625	-9221.005859375	57.43263244628906
0.0205	-0.0	-0.0	-0.0	-0.0	-0.0	-0.0	4.049097061157227	1.4415775537490845	-874.5565795898438	-0.0	-0.0	-0.0	-0.0	-0.0	-0.0	244884.640625	-9112.935546875	131.45083618164062
0.021	-0.0	-0.0	-0.0	-0.0	-0.0	-0.0	4.864890098571777	1.5897903442382812	-874.8062744140625	-0.0	-0.0	-0.0	-0.0	-0.0	-0.0	244557.375	-9321.26953125	206.76266479492188
0.021500000000000002	-0.0	-0.0	-0.0	-0.0	-0.0	-0.0	5.046213626861572	1.1200168132781982	-874.219970703125	-0.0	-0.0	-0.0	-0.0	-0.0	-0.0	244041.578125	-9320.744140625	239.90049743652344
0.022	-0.0	-0.0	-0.0	-0.0	-0.0	-0.0	5.205729961395264	1.3388665914535522	-874.275634765625	-0.0	-0.0	-0.0	-0.0	-0.0	-0.0	243744.4375	-9204.8408203125	256.870849609375
0.0225	-0.0	-0.0	-0.0	-0.0	-0.0	-0.0	4.925719261169434	1.1157269477844238	-872.1807861328125	-0.0	-0.0	-0.0	-0.0	-0.0	-0.0	243592.015625	-9104.51171875	225.5075225830078
0.023	-0.0	-0.0	-0.0	-0.0	-0.0	-0.0	4.388787746429443	1.0598602294921875	-871.8865966796875	-0.0	-0.0	-0.0	-0.0	-0.0	-0.0	243198.890625	-8733.1005859375	-90.27855682373048
0.0235	-0.0	-0.0	-0.0	-0.0	-0.0	-0.0	4.16071891784668	0.7862452268600464	-869.6066284179688	-0.0	-0.0	-0.0	-0.0	-0.0	-0.0	242837.234375	-8914.77734375	-274.87060546875
0.024	-0.0	-0.0	-0.0	-0.0	-0.0	-0.0	3.418161153793335	0.2705325186252594	-871.3953247070312	-0.0	-0.0	-0.0	-0.0	-0.0	-0.0	242567.9375	-8789.951171875	-444.330810546875
0.0245	-0.0	-0.0	-0.0	-0.0	-0.0	-0.0	2.947108030319214	0.0137511575594544	-868.9609985351562	-0.0	-0.0	-0.0	-0.0	-0.0	-0.0	242382.34375	-8458.5	-547.6617431640625
0.025	-0.0	-0.0	-0.0	-0.0	-0.0	-0.0	2.23150634765625	0.1903198808431625	-870.2727661132812	-0.0	-0.0	-0.0	-0.0	-0.0	-0.0	242200.515625	-8265.046875	-671.4506225585938
0.025500000000000002	-0.0	-0.0	-0.0	-0.0	-0.0	-0.0	2.183771133422852	0.4824627637863159	-869.333740234375	-0.0	-0.0	-0.0	-0.0	-0.0	-0.0	242285.34375	-8084.439453125	-765.0155639648438
0.026000000000000002	-0.0	-0.0	-0.0	-0.0	-0.0	-0.0	1.7742156982421875	0.5163532495498657	-869.9784545898438	-0.0	-0.0	-0.0	-0.0	-0.0	-0.0	242502.4375	-7811.56982421875	-899.9523315429688
0.0265	-0.0	-0.0	-0.0	-0.0	-0.0	-0.0	2.1968672275543213	0.7543885111808777	-869.8434448242188	-0.0	-0.0	-0.0	-0.0	-0.0	-0.0	242681.984375	-7940.63818359375	-892.7020263671875
0.027	-0.0	-0.0	-0.0	-0.0	-0.0	-0.0	2.443343162536621	1.0598602294921875	-871.7783203125	-0.0	-0.0	-0.0	-0.0	-0.0	-0.0	242580.296875	-7653.49755859375	-840.1669311523438
0.0275	-0.0	-0.0	-0.0	-0.0	-0.0	-0.0	2.414057731628418	1.2097272872924805	-872.773193359375	-0.0	-0.0	-0.0	-0.0	-0.0	-0.0	242704.734375	-7707.86767578125	-844.7431640625
0.028	-0.0	-0.0	-0.0	-0.0	-0.0	-0.0	3.215367555618286	1.3248252868652344	-873.0897827148438	-0.0	-0.0	-0.0	-0.0	-0.0	-0.0	243074.78125	-7372.45703125	-881.1519775390625
0.0285	-0.0	-0.0	-0.0	-0.0	-0.0	-0.0	2.7900681495666504	2.0712571144104004	-875.113037109375	-0.0	-0.0	-0.0	-0.0	-0.0	-0.0	243008.703125	-7633.7080078125	-777.6792602539062
0.029	-0.0	-0.0	-0.0	-0.0	-0.0	-0.0	3.3577401638031006	2.610016107559204	-874.0667114257812	-0.0	-0.0	-0.0	-0.0	-0.0	-0.0	243314.90625	-7419.4638671875	-616.853271484375
0.029500000000000002	-0.0	-0.0	-0.0	-0.0	-0.0	-0.0	3.68998646736145	2.230598211288452	-874.9591674804688	-0.0	-0.0	-0.0	-0.0	-0.0	-0.0	243065.609375	-7517.32470703125	-598.9252319335938
0.03	-0.0	-0.0	-0.0	-0.0	-0.0	-0.0	3.4728903770446777	2.132832288742065	-875.3749389648438	-0.0	-0.0	-0.0	-0.0	-0.0	-0.0	243137.265625	-7214.81591796875	-640.7896118164062
0.0305	-0.0	-0.0	-0.0	-0.0	-0.0	-0.0	3.6633315086364746	2.2934248447418213	-875.0770874023438	-0.0	-0.0	-0.0	-0.0	-0.0	-0.0	243277.40625	-7120.37890625	-552.6585693359375
0.031	-0.0	-0.0	-0.0	-0.0	-0.0	-0.0	2.992722511291504	1.602786421775818	-874.4811401367188	-0.0	-0.0	-0.0	-0.0	-0.0	-0.0	243222.0625	-6827.49853515625	-739.0654907226562
